<svg class="icon"
     viewBox="0 0 1024 1024"
     version="1.1"
     xmlns="http://www.w3.org/2000/svg"
     width="1em"
     height="1em">
    <path d="M858.6 64.2H165.5c-56 0-101.5 45.5-101.5 101.4V662c0 55.9 45.5 101.4 101.4 101.4h301.5v150H272c-9 0-16.3 7.3-16.3 16.3v12.8c0 9 7.3 16.3 16.3 16.3h481.1c9 0 16.3-7.3 16.3-16.3v-12.8c0-9-7.3-16.3-16.3-16.3H555.5v-150h303.2c55.9 0 101.4-45.5 101.4-101.4V165.6c0-55.9-45.5-101.4-101.5-101.4zM922.2 662c0 35.1-28.5 63.6-63.6 63.6H165.5c-35.1 0-63.6-28.5-63.6-63.6V165.6c0-35.1 28.5-63.6 63.6-63.6h693.2c35.1 0 63.6 28.5 63.6 63.6V662z"
          fill="currentColor"
          opacity=".9"/>
    <path d="M533.4 175.3H489c-12.2 0-22.1 9.9-22.1 22.1v333.1c0 12.2 9.9 22.1 22.1 22.1h44.4c12.2 0 22.1-9.9 22.1-22.1V197.4c0-12.2-9.9-22.1-22.1-22.1zM383.2 310.4h-44.4c-12.2 0-22.1 9.9-22.1 22.1v198.1c0 12.2 9.9 22.1 22.1 22.1h44.4c12.2 0 22.1-9.9 22.1-22.1V332.4c-0.1-12.2-9.9-22-22.1-22zM684.5 363.9h-44.4c-12.2 0-22.1 9.9-22.1 22.1v144.5c0 12.2 9.9 22.1 22.1 22.1h44.4c12.2 0 22.1-9.9 22.1-22.1V386c0-12.2-9.9-22.1-22.1-22.1z"
          fill="currentColor"
          opacity=".9"/>
</svg>